/vscmnt/brussel_pixiu_data/_data_brussel/112/vsc11236/PredSimResults/SUBJ07mtu3D/weighted-LRposFixed/expIG/worker_02.mot
version=1
nRows=8
nColumns=50
inDegrees=yes
endheader
                time	         pelvis_tilt	         pelvis_list	     pelvis_rotation	           pelvis_tx	           pelvis_ty	           pelvis_tz	       hip_flexion_r	     hip_adduction_r	      hip_rotation_r	        knee_angle_r	       ankle_angle_r	         mtp_angle_r	       hip_flexion_l	     hip_adduction_l	      hip_rotation_l	        knee_angle_l	       ankle_angle_l	         mtp_angle_l	    lumbar_extension	      lumbar_bending	     lumbar_rotation	 ercspn_r/activation	 intobl_r/activation	 extobl_r/activation	    abd_r/activation	    add_r/activation	hamstrings_r/activation	bifemsh_r/activation	glut_max_r/activation	iliopsoas_r/activation	rect_fem_r/activation	  vasti_r/activation	gastroc_r/activation	 soleus_r/activation	tib_ant_r/activation	 ercspn_l/activation	 intobl_l/activation	 extobl_l/activation	    abd_l/activation	    add_l/activation	hamstrings_l/activation	bifemsh_l/activation	glut_max_l/activation	iliopsoas_l/activation	rect_fem_l/activation	  vasti_l/activation	gastroc_l/activation	 soleus_l/activation	tib_ant_l/activation	
          2.77264855	         -8.90619410	          7.39214756	        -10.14071775	          3.57671663	          0.89543716	          0.00810081	         28.76846245	          1.91795487	         10.28618511	        -35.55215602	          3.48938478	          9.91891904	        -14.91708610	         13.99059071	        -28.61050924	          1.99581431	        -13.83733480	          1.05473666	         -3.02071395	          1.26803484	          3.68561285	          0.14524520	          0.11823297	          0.07550744	          0.08920240	          0.12388068	          0.10198085	          0.14564703	          0.03132403	          0.36415164	          0.51639753	          0.05985172	          0.05394958	          0.05047641	          0.31486332	          0.06442144	          0.07180742	          0.07338372	          0.00999999	          0.00999999	          0.31126371	          0.33430455	          0.25022541	          0.18754880	          0.01870542	          0.01205170	          0.00999999	          0.08801457	          0.07126149	
          2.79113287	         -8.62563375	          6.95768374	        -11.06659898	          3.59526935	          0.89104892	          0.00969601	         28.93260294	          2.58580920	          9.51041359	        -31.74794926	          4.75231309	          7.81607265	        -13.93914937	         12.50424730	        -29.04428967	         -2.96020140	        -13.73541259	          3.01947034	         -4.28206782	          1.91094936	          3.10183728	          0.17393556	          0.09038720	          0.05772422	          0.07219345	          0.12993774	          0.19285795	          0.11134481	          0.02394671	          0.27838806	          0.39477758	          0.04575567	          0.04124359	          0.03858840	          0.28178540	          0.09814697	          0.05489561	          0.05610067	          0.00999999	          0.00999999	          0.23795609	          0.25557043	          0.19129329	          0.31021081	          0.01429999	          0.00999999	          0.10113595	          0.13786055	          0.05447826	
          2.80961720	         -8.28906890	          6.50842698	        -11.90822094	          3.61539178	          0.88396054	          0.01107164	         28.67436913	          3.22961864	          8.81777842	        -27.87782354	          5.68984677	          6.16642886	        -13.38538056	         11.10572641	        -29.01027208	         -7.88592007	        -13.99635208	          6.92797891	         -5.29783236	          2.64123566	          2.44520075	          0.20530266	          0.06909956	          0.04412923	          0.08641294	          0.12622954	          0.26552283	          0.23291271	          0.01830688	          0.21282318	          0.30180110	          0.03497947	          0.03153006	          0.02950021	          0.24524539	          0.09433556	          0.04196681	          0.04288806	          0.00999999	          0.00999999	          0.18191359	          0.19537948	          0.14624063	          0.42343314	          0.01093211	          0.00999999	          0.09188505	          0.14581016	          0.04164775	
          2.82810152	         -7.89623081	          6.10869880	        -12.65672697	          3.63736093	          0.87454548	          0.01222579	         28.10319880	          3.79322568	          8.16658820	        -25.36237911	          6.14040635	          4.83158966	        -13.00904580	          9.82402129	        -28.56054784	        -12.97087743	        -14.23643294	         11.08450329	         -5.98331556	          3.42476631	          1.72515028	          0.25736231	          0.05282550	          0.03373609	          0.18653225	          0.27676665	          0.30811307	          0.17805801	          0.01399531	          0.16269989	          0.23072207	          0.02674124	          0.02410422	          0.02255243	          0.26059069	          0.11498695	          0.03208295	          0.03278723	          0.00999999	          0.00999999	          0.13907001	          0.14936446	          0.11179861	          0.45875127	          0.00999999	          0.00999999	          0.08739399	          0.14522305	          0.03183903	
          2.84658584	         -7.46318074	          5.77552583	        -13.34866841	          3.66110488	          0.86366806	          0.01308233	         27.58955807	          4.12051923	          7.65466346	        -27.84900457	          9.20957496	          4.82341589	        -12.49655273	          8.59768243	        -27.80312268	        -18.62665580	        -14.57270909	         14.76580950	         -6.30351929	          4.27096396	          1.01756365	          0.19756372	          0.04038424	          0.02579069	          0.19216144	          0.21158364	          0.23554748	          0.13612248	          0.26989310	          0.12438144	          0.17638330	          0.09584730	          0.09858268	          0.21803262	          0.19921738	          0.24741247	          0.17821126	          0.02506531	          0.00999999	          0.00999999	          0.10631678	          0.11418672	          0.08546823	          0.41983374	          0.00999999	          0.00999999	          0.06681130	          0.11102068	          0.02434043	
          2.86507017	         -7.04464858	          5.31642674	        -13.86278946	          3.68511273	          0.85426277	          0.01394334	         26.86716076	          4.48542954	          7.74757444	        -31.20257458	         13.14900876	          6.62960266	        -11.33004324	          7.01158528	        -26.73136967	        -25.26166998	        -15.54940164	         16.75535230	         -6.47945223	          5.22007209	          0.32816288	          0.15103428	          0.03087310	          0.01971657	          0.32075560	          0.20846556	          0.18007225	          0.10406344	          0.21264081	          0.09508761	          0.13484219	          0.41190484	          0.13470943	          0.33580438	          0.15229848	          0.30524258	          0.24470832	          0.01916202	          0.00999999	          0.04398774	          0.08127746	          0.08729391	          0.06533909	          0.39284878	          0.00999999	          0.00999999	          0.05107616	          0.08487352	          0.01860787	
          2.88355449	         -6.63586863	          4.80779976	        -14.19084962	          3.70829322	          0.84885725	          0.01474787	         25.59499796	          4.73823051	          7.73333935	        -33.21738227	         15.66470408	          8.93361840	         -9.31052816	          5.19711336	        -25.30683732	        -32.56727089	        -17.42271211	         15.41778316	         -6.69539251	          6.09606663	         -0.26515145	          0.11546327	          0.02360199	          0.01507300	          0.35362300	          0.15936856	          0.13766233	          0.07955482	          0.16256047	          0.07269294	          0.10308468	          0.50614432	          0.16766240	          0.42690764	          0.11642973	          0.29279547	          0.24729301	          0.01464906	          0.00999999	          0.16518082	          0.06213531	          0.06692994	          0.04995068	          0.30032656	          0.00999999	          0.00999999	          0.03904690	          0.06488444	          0.16529266	
          2.90203882	         -6.24517698	          4.34700101	        -14.36852563	          3.73041974	          0.84756874	          0.01523438	         23.78424382	          4.77492145	          7.61922159	        -33.82807071	         16.85771709	         11.29418835	         -6.71529458	          3.54359349	        -23.58243201	        -39.69853686	        -17.13474568	         12.12611370	         -6.97182685	          6.80746683	         -0.72287623	          0.08826981	          0.01804334	          0.01152307	          0.28653930	          0.12183470	          0.10622312	          0.06081838	          0.12427486	          0.05557258	          0.07880658	          0.46080503	          0.19672854	          0.47541189	          0.08900865	          0.27734149	          0.18905152	          0.06720018	          0.00999999	          0.16739740	          0.04750144	          0.12859142	          0.03818649	          0.22959481	          0.00999999	          0.00999999	          0.03829640	          0.04960311	          0.18623454	
